<svg version="1.1" xmlns="http://www.w3.org/2000/svg" xmlns:xlink="http://www.w3.org/1999/xlink" viewBox="29.79 -208.32 55.34 51.07">
<g id="page1">
<g transform="matrix(1 0 0 -1 0 0)">
<path d="M82.9766 182.793C82.9766 196.8828 71.5547 208.3047 57.4648 208.3047C43.375 208.3047 31.9531 196.8828 31.9531 182.793C31.9531 168.7031 43.375 157.2812 57.4648 157.2812C71.5547 157.2812 82.9766 168.7031 82.9766 182.793Z" fill="#fff"/>
<path d="M41.6055 170.0352H70.4883C72.6875 170.0352 74.668 171.8086 74.9141 173.9961L76.8672 191.5898C77.1094 193.7773 75.5234 195.5469 73.3203 195.5469H40.457L38.0625 173.9961C37.8203 171.8086 39.4062 170.0352 41.6055 170.0352Z" fill="#fbcb6a"/>
<path d="M41.6055 170.0352H70.4883C72.6875 170.0352 74.668 171.8086 74.9141 173.9961L76.8672 191.5898C77.1094 193.7773 75.5234 195.5469 73.3203 195.5469H40.457L38.0625 173.9961C37.8203 171.8086 39.4062 170.0352 41.6055 170.0352Z" stroke="#4d4d4d" fill="none" stroke-width="1.49442" stroke-miterlimit="10"/>
<path d="M40.457 195.5469L40.4961 195.8516C40.7891 198.0312 42.8086 199.8008 45.0078 199.8008H50.7969C51.3477 199.8008 52.1523 199.5352 52.5937 199.2031L57.4648 195.5469Z" fill="#fbcb6a"/>
<path d="M40.457 195.5469L40.4961 195.8516C40.7891 198.0312 42.8086 199.8008 45.0078 199.8008H50.7969C51.3477 199.8008 52.1523 199.5352 52.5937 199.2031L57.4648 195.5469Z" stroke="#4d4d4d" fill="none" stroke-width="1.49442" stroke-miterlimit="10"/>
<path d="M59.5898 182.793C59.5898 183.9687 58.6367 184.918 57.4648 184.918C56.2891 184.918 55.3398 183.9687 55.3398 182.793C55.3398 181.6172 56.2891 180.668 57.4648 180.668C58.6367 180.668 59.5898 181.6172 59.5898 182.793Z" fill="#2e43b8"/>
<path d="M67.668 182.793C67.668 185.6094 63.1016 187.8945 57.4648 187.8945C51.8281 187.8945 47.2578 185.6094 47.2578 182.793S51.8281 177.6914 57.4648 177.6914C63.1016 177.6914 67.668 179.9766 67.668 182.793Z" stroke="#2e43b8" fill="none" stroke-width="1.49442" stroke-miterlimit="10"/>
<path d="M62.5664 182.793C62.5664 188.4297 60.2812 192.9961 57.4648 192.9961C54.6445 192.9961 52.3633 188.4297 52.3633 182.793C52.3633 177.1562 54.6445 172.5898 57.4648 172.5898C60.2812 172.5898 62.5664 177.1562 62.5664 182.793Z" stroke="#2e43b8" fill="none" stroke-width="1.49442" stroke-miterlimit="10"/>
<path d="M61.0703 186.4023C57.0859 190.3867 52.2422 192 50.25 190.0078C48.2539 188.0156 49.8711 183.1719 53.8555 179.1836C57.8398 175.1992 62.6875 173.5859 64.6797 175.5781S65.0586 182.4141 61.0703 186.4023Z" stroke="#2e43b8" fill="none" stroke-width="1.49442" stroke-miterlimit="10"/>
<path d="M61.0703 179.1836C65.0586 183.1719 66.6719 188.0156 64.6797 190.0078S57.8398 190.3867 53.8555 186.4023C49.8711 182.4141 48.2539 177.5703 50.25 175.5781C52.2422 173.5859 57.0859 175.1992 61.0703 179.1836Z" stroke="#2e43b8" fill="none" stroke-width="1.49442" stroke-miterlimit="10"/>
</g>
</g>
</svg>