<svg version="1.1" xmlns="http://www.w3.org/2000/svg" xmlns:xlink="http://www.w3.org/1999/xlink" viewBox="23.32 -193.73 97.97 105.97">
<g id="page1">
<g transform="matrix(1 0 0 -1 0 0)">
<path d="M73.7617 162.9492C73.7617 164.125 72.8125 165.0742 71.6367 165.0742C70.4648 165.0742 69.5117 164.125 69.5117 162.9492C69.5117 161.7773 70.4648 160.8242 71.6367 160.8242C72.8125 160.8242 73.7617 161.7773 73.7617 162.9492Z"/>
<path d="M73.7617 162.9492C73.7617 164.125 72.8125 165.0742 71.6367 165.0742C70.4648 165.0742 69.5117 164.125 69.5117 162.9492C69.5117 161.7773 70.4648 160.8242 71.6367 160.8242C72.8125 160.8242 73.7617 161.7773 73.7617 162.9492Z" stroke="#000" fill="none" stroke-width=".3985" stroke-miterlimit="10"/>
<path d="M81.8437 162.9492C81.8437 165.7695 77.2734 168.0508 71.6367 168.0508S61.4336 165.7695 61.4336 162.9492C61.4336 160.1328 66 157.8477 71.6367 157.8477S81.8437 160.1328 81.8437 162.9492Z" stroke="#000" fill="none" stroke-width=".68033" stroke-miterlimit="10"/>
<path d="M76.7383 162.9492C76.7383 168.5859 74.457 173.1562 71.6367 173.1562C68.8203 173.1562 66.5352 168.5859 66.5352 162.9492S68.8203 152.7461 71.6367 152.7461C74.457 152.7461 76.7383 157.3125 76.7383 162.9492Z" stroke="#000" fill="none" stroke-width=".68033" stroke-miterlimit="10"/>
<path d="M75.2461 166.5586C71.2617 170.543 66.4141 172.1602 64.4219 170.168C62.4297 168.1719 64.043 163.3281 68.0312 159.3437C72.0156 155.3555 76.8594 153.7422 78.8555 155.7344C80.8477 157.7266 79.2305 162.5742 75.2461 166.5586Z" stroke="#000" fill="none" stroke-width=".68033" stroke-miterlimit="10"/>
<path d="M75.2461 159.3437C79.2305 163.3281 80.8477 168.1719 78.8555 170.168C76.8594 172.1602 72.0156 170.543 68.0312 166.5586C64.043 162.5742 62.4297 157.7266 64.4219 155.7344S71.2617 155.3555 75.2461 159.3437Z" stroke="#000" fill="none" stroke-width=".68033" stroke-miterlimit="10"/>
<path d="M39.3146 140.29827C39.3146 134.94452 43.45366 130.879835 48.9312 130.879835C52.649 130.879835 55.4746 132.61484 57.3087 136.01046H55.2762C53.343 133.5814 51.5833 132.56515 48.9065 132.56515C44.66804 132.56515 41.17335 136.08483 41.17335 140.37265C41.17335 144.7845 44.5196 148.1551 48.8818 148.1551C51.4593 148.1551 53.6155 147.2133 55.1771 144.7595H57.2343C55.8215 147.9073 52.5996 149.8408 48.8074 149.8408C43.3546 149.8408 39.3146 145.7758 39.3146 140.29827ZM60.2596 131.202023H70.2727V132.86265H62.0937V139.6289H70.0002V141.2895H62.0937V147.8576H70.2727V149.5183H60.2596V131.202023ZM73.5455 131.202023H75.3795V147.8576H77.9573C82.2201 147.8576 84.1039 146.7423 84.1039 143.6939C84.1039 140.39734 82.3689 139.50515 77.2383 139.50515L83.4098 131.202023H85.6901L80.5595 138.04265C84.0792 138.41452 85.963 140.37265 85.963 143.6195C85.963 147.4364 83.8314 149.5183 78.0811 149.5183H73.5455V131.202023ZM88.5912 131.202023H90.4252V147.3126L101.3308 131.202023H103.1649V149.5183H101.3308V134.32484L91.0696 149.5183H88.5912V131.202023Z"/>
<path d="M73.7617 117.594C73.7617 118.77 72.8125 119.723 71.6367 119.723C70.4648 119.723 69.5117 118.77 69.5117 117.594C69.5117 116.422 70.4648 115.469 71.6367 115.469C72.8125 115.469 73.7617 116.422 73.7617 117.594Z"/>
<path d="M73.7617 117.594C73.7617 118.77 72.8125 119.723 71.6367 119.723C70.4648 119.723 69.5117 118.77 69.5117 117.594C69.5117 116.422 70.4648 115.469 71.6367 115.469C72.8125 115.469 73.7617 116.422 73.7617 117.594Z" stroke="#000" fill="none" stroke-width=".3985" stroke-miterlimit="10"/>
<path d="M81.8437 117.594C81.8437 120.414 77.2734 122.699 71.6367 122.699S61.4336 120.414 61.4336 117.594C61.4336 114.777 66 112.492 71.6367 112.492S81.8437 114.777 81.8437 117.594Z" stroke="#000" fill="none" stroke-width=".68033" stroke-miterlimit="10"/>
<path d="M76.7383 117.594C76.7383 123.23 74.457 127.8008 71.6367 127.8008C68.8203 127.8008 66.5352 123.23 66.5352 117.594C66.5352 111.961 68.8203 107.391 71.6367 107.391C74.457 107.391 76.7383 111.961 76.7383 117.594Z" stroke="#000" fill="none" stroke-width=".68033" stroke-miterlimit="10"/>
<path d="M75.2461 121.203C71.2617 125.187 66.4141 126.8047 64.4219 124.812C62.4297 122.82 64.043 117.973 68.0312 113.988C72.0156 110.004 76.8594 108.387 78.8555 110.379C80.8477 112.371 79.2305 117.219 75.2461 121.203Z" stroke="#000" fill="none" stroke-width=".68033" stroke-miterlimit="10"/>
<path d="M75.2461 113.988C79.2305 117.973 80.8477 122.82 78.8555 124.812C76.8594 126.8047 72.0156 125.187 68.0312 121.203C64.043 117.219 62.4297 112.371 64.4219 110.379S71.2617 110.004 75.2461 113.988Z" stroke="#000" fill="none" stroke-width=".68033" stroke-miterlimit="10"/>
<path d="M26.964425 158.514454C25.374428 158.952897 23.792862 158.132578 23.409424 156.74227S23.963798 153.837269 25.553797 153.398832S28.683487 153.808523 29.062547 155.183515C29.4438 156.566024 28.546613 158.077895 26.964425 158.514454ZM28.517235 155.333827C28.260987 154.404461 27.09661 153.808211 25.644734 154.208516C24.285363 154.583514 23.685364 155.674768 23.939423 156.596336C24.193482 157.518205 25.268173 158.147584 26.627553 157.772583C28.087236 157.370083 28.773486 156.263203 28.517235 155.333827Z"/>
<path d="M28.775075 162.548861C28.910395 163.728857 28.383511 164.262919 27.987269 164.430419C27.223516 164.753232 26.235387 164.115113 25.785698 163.050417L24.969762 161.119483L30.065077 158.966357L30.36914 159.686045L28.063826 160.66011L28.575704 161.871361L31.486013 162.328854L31.799139 163.070418L28.775075 162.548861ZM27.579137 160.864796L25.707262 161.656043L26.178826 162.771983C26.535386 163.616354 27.161327 163.991982 27.704763 163.762294C28.218517 163.545108 28.422886 162.861667 28.050701 161.980736L27.579137 160.864796Z"/>
<path d="M32.366464 168.890225L31.47428 167.344286L31.929593 167.081158L32.471468 168.019912L33.527408 167.410849C33.428031 167.063035 33.318968 166.730533 33.139595 166.420225C32.526468 165.357097 31.147406 165.278967 30.160215 165.848344C29.214907 166.393967 28.543032 167.63709 29.144592 168.679288C29.510847 169.314285 29.934905 169.603344 30.424282 169.78084L29.859909 170.253971C29.357093 169.909282 29.003972 169.551785 28.70115 169.027408C27.896784 167.633343 28.381777 165.954911 29.762092 165.158347C31.108032 164.381782 32.834281 164.774909 33.61897 166.134287C33.905531 166.631472 34.133655 167.281471 34.160844 167.854598L32.366464 168.890225Z"/>
<path d="M32.247475 174.094354L31.780286 173.478107L34.86435 168.39061L35.259038 168.911235L34.377165 170.359981L35.840595 172.290609L37.473725 171.833108L37.979039 172.499985L32.247475 174.094354ZM32.445913 173.353423L35.345602 172.41592L34.122787 170.8028L32.445913 173.353423Z"/>
<path d="M35.509579 177.935415L34.748642 177.163542L38.687706 173.279479L39.157707 173.756355L35.667076 177.198226L35.672707 177.203852L40.998954 175.623852L41.760203 176.395726L37.821148 180.279791L37.350836 179.802917L40.841457 176.361042L40.836141 176.355414L35.509579 177.935415Z"/>
<path d="M40.033078 182.157504L39.417142 181.63938L42.976519 177.407503L43.592456 177.925628L40.033078 182.157504Z"/>
<path d="M44.280007 185.071206C43.712194 184.989015 43.268444 184.828701 42.788441 184.486209C41.809068 183.786826 41.70438 182.713078 42.148756 182.090263C42.338751 181.824331 42.645004 181.573391 43.175941 181.501829C43.65125 181.439643 43.99563 181.588076 44.467192 181.777774C45.105003 182.036827 45.277187 182.111206 45.604066 182.050895C45.815317 182.015577 46.048749 181.908079 46.20625 181.687457C46.493129 181.285268 46.426562 180.610889 45.797507 180.161832C45.427818 179.897768 44.75219 179.582141 43.929692 179.65089L44.242503 178.992767C44.70094 179.036204 45.424689 179.161202 46.150942 179.679955C47.052503 180.323705 47.227191 181.437142 46.708439 182.163707C46.333443 182.689012 45.815625 182.769642 45.588749 182.813391C45.126253 182.884636 44.776879 182.743081 44.194376 182.503391C43.733754 182.311514 43.489377 182.215266 43.227189 182.253394C43.0825 182.277141 42.826559 182.320269 42.65063 182.566522C42.391255 182.929951 42.486256 183.564955 43.115315 184.014335C43.608133 184.366206 44.063125 184.455895 44.593126 184.413396L44.280007 185.071206Z"/>
<path d="M48.118804 187.614602L47.441926 187.24178L48.190365 181.339286L48.762865 181.654598L48.546304 183.33679L50.668486 184.505536L51.974118 183.42335L52.707242 183.827099L48.118804 187.614602ZM47.999112 186.857099L50.266926 184.821468L48.493798 183.844596L47.999112 186.857099Z"/>
<path d="M54.189575 189.74442L54.886445 190.019105C54.975511 190.0541 55.067701 190.081599 55.156763 190.116604L56.224265 190.537543L56.019572 191.056605L51.207386 189.160045L51.412073 188.640981L52.479888 189.061915C52.568639 189.096915 52.654576 189.139415 52.743638 189.17442L53.440508 189.449105L55.246453 184.866604L55.995512 185.161915L54.189575 189.74442Z"/>
<path d="M58.301183 191.754267L57.528994 191.527709L59.08587 186.220518L59.858059 186.447081L58.301183 191.754267Z"/>
<path d="M65.726459 190.541456C65.413966 192.161453 63.976778 193.214581 62.560528 192.940827C61.144277 192.667083 60.202712 191.153958 60.515212 189.533953C60.827711 187.914273 62.27115 186.910831 63.671771 187.181767C65.080215 187.453957 66.037403 188.929583 65.726459 190.541456ZM63.564588 187.737393C62.618026 187.554268 61.566772 188.333325 61.281463 189.812077C61.013958 191.197085 61.726149 192.219269 62.664896 192.40083C63.603958 192.582391 64.644582 191.898959 64.912085 190.51396C65.198965 189.027395 64.511465 187.920518 63.564588 187.737393Z"/>
<path d="M68.304445 193.555155L67.222574 193.496717L67.521637 187.975157L68.190072 188.011407L67.925078 192.904528L67.932882 192.904842L70.807576 188.15297L71.88945 188.211719L71.590384 193.733281L70.922263 193.697034L71.187257 188.803907L71.179132 188.803594L68.304445 193.555155Z"/>
<path d="M83.123125 189.491013L83.225935 190.006957L80.498438 190.551021L80.857186 192.348519L81.998124 192.121013C82.091873 192.102272 82.184376 192.075703 82.278123 192.056952L83.817805 191.750078L83.926871 192.29727L80.175309 193.045392L79.098122 187.644767L82.966869 186.873206L83.088429 187.482893L82.385 187.623204C81.72843 187.754144 81.068751 187.869455 80.412181 188.000393L80.00593 188.081331L80.395618 190.035078L83.123125 189.491013Z"/>
<path d="M89.842477 190.497553L89.184042 190.71474L88.032786 187.22599C87.698103 186.211923 86.864976 185.974737 86.214034 186.189425C85.5631 186.404424 85.08216 187.083488 85.411851 188.082238L86.565601 191.578799L85.801225 191.830982L84.652476 188.349734C84.285289 187.237237 84.969037 186.10505 86.059035 185.745363C87.141231 185.388486 88.329043 185.911298 88.693726 187.016295L89.842477 190.497553Z"/>
<path d="M93.197589 185.779837C94.370401 185.592024 94.927592 186.094527 95.112598 186.482966C95.468844 187.231401 94.87541 188.246715 93.832285 188.743584L91.939783 189.644529L89.56197 184.651088L90.267282 184.315463L91.343217 186.574835L92.530403 186.009529L92.85728 183.082027L93.584159 182.735775L93.197589 185.779837ZM91.569158 187.049528L92.442906 188.884213L93.536348 188.363276C94.363847 187.969207 94.711346 187.327334 94.457908 186.794842C94.217913 186.291401 93.526031 186.117646 92.662599 186.528591L91.569158 187.049528Z"/>
<path d="M100.16494 181.810548C101.061505 183.19555 100.754627 184.950866 99.543697 185.734928C98.332754 186.518987 96.605255 186.079928 95.708691 184.694926C94.812127 183.309923 95.158071 181.585861 96.355881 180.81055C97.560256 180.030863 99.27276 180.432427 100.16494 181.810548ZM96.663377 181.285865C95.853688 181.809928 95.635255 183.099921 96.453686 184.364614C97.220568 185.548677 98.441813 185.793049 99.244629 185.273366C100.04744 184.753675 100.324943 183.539295 99.558067 182.35524C98.735256 181.083985 97.473066 180.761801 96.663377 181.285865Z"/>
<path d="M102.813816 179.018263C103.597259 178.352631 104.76538 178.311703 105.358507 179.010144C105.910697 179.660139 105.762258 180.790139 104.881636 181.538267L103.241943 182.931386L99.661321 178.716388L100.274447 178.195137L101.74476 179.926076L102.813816 179.018263ZM104.425388 181.308888C105.111638 180.725766 105.23913 179.990135 104.805692 179.479824C104.382886 178.982011 103.650071 178.956071 102.939443 179.559827L102.046633 180.318257L103.532571 182.067325L104.425388 181.308888Z"/>
<path d="M108.059553 174.285125L108.444552 174.643251L106.549864 176.679504L107.892051 177.928251L108.684868 177.076379C108.749868 177.006376 108.808928 176.93075 108.874239 176.860751L109.943609 175.711064L110.352051 176.091058L107.746429 178.892003L103.714552 175.141064L106.401742 172.252623L106.856742 172.676062L106.367992 173.201374C105.912051 173.691378 105.444553 174.170751 104.988612 174.660754L104.706118 174.964186L106.164865 176.321377L108.059553 174.285125Z"/>
<path d="M111.329197 170.016778L111.752322 170.328654L110.102005 172.566774L111.577007 173.65428L112.267317 172.718023C112.324198 172.641154 112.374192 172.559592 112.431074 172.482402L113.362632 171.219272L113.811697 171.550524L111.542008 174.628652L107.110757 171.361152L109.45138 168.18678L109.951695 168.555526L109.526067 169.132717C109.128879 169.671468 108.718883 170.200525 108.321695 170.739276L108.075756 171.072716L109.678881 172.254898L111.329197 170.016778Z"/>
<path d="M115.437462 168.968336L114.907468 169.913657L110.083714 167.208966L110.411216 166.625213L114.685897 169.021777L114.689649 169.014595L111.693091 164.338339L112.22309 163.393028L117.046841 166.097713L116.719653 166.681468L112.444965 164.28459L112.4409 164.29178L115.437462 168.968336Z"/>
<path d="M118.455375 162.968789L118.056314 163.976285L112.914439 161.940036L113.161003 161.317846L117.717569 163.122536L117.720378 163.115034L114.126315 158.880035L114.525376 157.872538L119.667249 159.908784L119.420695 160.530971L114.864125 158.726602L114.861313 158.734102L118.455375 162.968789Z"/>
<path d="M118.406079 153.559479L118.914829 153.692291L118.212958 156.383545L119.986708 156.846041L120.280462 155.720107C120.304519 155.62761 120.321078 155.53323 120.345455 155.440733L120.741397 153.921356L121.281086 154.061977L120.315774 157.763545L114.98702 156.373856L115.982645 152.556667L116.584207 152.713545L116.403269 153.407607C116.234207 154.055422 116.049832 154.699171 115.880769 155.346986L115.776082 155.74792L117.704208 156.250733L118.406079 153.559479Z"/>
<path d="M32.272814 135.351718C32.105625 136.366406 31.240937 137.15297 30.336252 137.003904C29.494999 136.865156 28.877496 135.907024 29.06531 134.766714L29.415307 132.643277L34.873125 133.542653L34.742187 134.337028L32.50094 133.967652L32.272814 135.351718ZM29.561564 134.646718C29.415001 135.53547 29.793435 136.179211 30.454059 136.288282C31.099065 136.394526 31.67469 135.939837 31.826562 135.019845L32.016871 133.863904L29.751873 133.490777L29.561564 134.646718Z"/>
<path d="M31.298188 143.875021C29.648808 143.861896 28.351623 142.640019 28.363191 141.197833C28.375062 139.75533 29.691627 138.55471 31.340997 138.567835C32.990684 138.581272 34.239436 139.818457 34.227874 141.245022C34.216624 142.679081 32.939745 143.888462 31.298188 143.875021ZM33.662249 141.240646C33.670061 140.276273 32.713183 139.384084 31.206933 139.371898C29.796625 139.360648 28.920994 140.24596 28.913188 141.202213C28.905684 142.158149 29.766932 143.057834 31.17725 143.069084C32.69131 143.081274 33.654749 142.204711 33.662249 141.240646Z"/>
<path d="M29.354947 150.201682L29.24933 149.516371L32.880574 148.955428C33.936202 148.79231 34.306827 148.009185 34.202451 147.33199C34.097764 146.654499 33.507138 146.068244 32.467453 146.228872L28.828387 146.791053L28.705578 145.995432L32.329012 145.435744C33.486826 145.256995 34.490576 146.117931 34.665889 147.251996C34.839638 148.378552 34.128389 149.464495 32.978391 149.641993L29.354947 150.201682Z"/>
<path d="M33.561332 154.323912C33.582272 155.511407 33.00633 155.992351 32.595713 156.120788C31.804769 156.36829 30.883207 155.63829 30.538209 154.535783L29.911953 152.535788L35.189458 150.883287L35.422582 151.628595L33.034774 152.376101L33.42789 153.630784L36.27977 154.366098L36.520396 155.134226L33.561332 154.323912ZM32.532894 152.533292L30.593525 153.140474L30.955713 154.296413C31.229457 155.170793 31.816329 155.605159 32.379145 155.428911C32.911642 155.262349 33.180711 154.601729 32.895079 153.689222L32.532894 152.533292Z"/>
<path d="M33.705815 162.035979L33.312373 161.333789L38.136121 158.629103L39.835183 161.659726L39.341744 161.936287C38.971432 161.275976 38.614871 160.607852 38.24487 159.947539L38.04987 159.600039L33.705815 162.035979Z"/>
<path d="M37.502695 167.8904L37.037379 167.273207L40.132068 162.192897L40.525506 162.714773L39.640505 164.161022L41.099251 166.09571L42.733006 165.64196L43.236757 166.310087L37.502695 167.8904ZM37.703003 167.150397L40.603938 166.219773L39.385195 164.60321L37.703003 167.150397Z"/>
<path d="M46.409665 172.849489C47.063729 173.841363 46.83529 174.556369 46.557164 174.884798C46.021849 175.517611 44.852169 175.394799 43.96966 174.64855L42.369036 173.294802L45.941225 169.071363L46.537786 169.575736L44.921533 171.486674L45.925604 172.33605L48.72841 171.428861L49.3431 171.94855L46.409665 172.849489ZM44.58185 171.888242L43.269345 173.440115L44.194355 174.222611C44.894037 174.814494 45.622164 174.866673 46.003099 174.416361C46.363416 173.990428 46.237163 173.288245 45.506845 172.670739L44.58185 171.888242Z"/>
<path d="M51.854413 176.619091L51.574727 177.064723L49.21941 175.585026L48.24441 177.137219L49.22973 177.75628C49.310662 177.807218 49.395663 177.850968 49.476914 177.901905L50.806289 178.737215L50.509731 179.209718L47.270352 177.174715L50.199725 172.511281L53.540348 174.609717L53.209726 175.136281L52.60222 174.754716C52.035347 174.398779 51.476908 174.028779 50.910035 173.672842L50.559102 173.45222L49.499099 175.139408L51.854413 176.619091Z"/>
<path d="M57.953308 177.720385C57.584243 177.179446 57.413306 176.936946 56.685807 176.611321C55.558304 176.106319 54.402368 176.854762 53.932995 177.902264C53.450807 178.978824 53.747052 180.325695 54.809242 180.801317C55.289555 181.016321 55.85237 181.085067 56.301113 180.980697L56.121114 181.694446C55.527051 181.655697 55.093621 181.531316 54.562369 181.293512C53.122057 180.6482 52.57987 178.973191 53.208932 177.569131C53.879867 176.070697 55.517365 175.476319 56.935805 176.111633C57.648617 176.431007 57.882056 176.710071 58.244555 177.187257L57.953308 177.720385Z"/>
<path d="M62.316278 183.769388L61.540958 183.55408L62.180966 181.250637L59.470644 180.497516L58.830647 182.800952L58.055023 182.585332L59.535649 177.25689L60.311272 177.472515L59.611585 179.990953L62.321896 180.744081L63.021584 178.225639L63.796902 178.440954L62.316278 183.769388Z"/>
<path d="M68.556446 181.746267L68.490198 182.268147L65.730514 181.918145L65.500204 183.736902L66.654578 183.883459C66.749575 183.895331 66.84551 183.899399 66.940204 183.911273L68.498007 184.108771L68.427702 184.662209L64.632075 184.180955L65.324887 178.71721L69.238947 179.213459L69.160828 179.830335L68.449267 179.740023C67.785195 179.655959 67.122699 179.555959 66.458637 179.471584L66.047382 179.419397L65.79676 181.396276L68.556446 181.746267Z"/>
<path d="M73.220319 181.803672C74.364697 182.121798 74.661567 182.810865 74.667821 183.241176C74.680009 184.06993 73.717509 184.745241 72.562198 184.762112L70.466572 184.792736L70.385946 179.262739L71.166884 179.251176L71.203452 181.753359L72.518132 181.734298L74.035319 179.209301L74.84032 179.197739L73.220319 181.803672ZM71.210945 182.279299L71.240639 184.311179L72.451885 184.293672C73.368137 184.280235 73.95157 183.841181 73.942817 183.251484C73.934694 182.693681 73.378137 182.24774 72.422201 182.261803L71.210945 182.279299Z"/>
<path d="M80.118991 179.361549C79.513681 179.112486 79.23774 179.003737 78.450868 179.130923C77.231493 179.32811 76.676494 180.588115 76.859622 181.720918C77.047741 182.885297 78.034932 183.848115 79.183366 183.662491C79.702743 183.578734 80.210865 183.326857 80.528374 182.993114L80.769932 183.688735C80.25243 183.982483 79.822117 184.11624 79.247742 184.209047C77.689933 184.460925 76.316808 183.358738 76.071494 181.840294C75.809619 180.219669 76.851498 178.82436 78.385553 178.576236C79.15649 178.451549 79.504624 178.557172 80.069623 178.756235L80.118991 179.361549Z"/>
<path d="M87.093276 182.016803L86.327027 182.263371L85.594214 179.987428L82.916398 180.849622L83.649208 183.125556L82.882961 183.372124L81.18796 178.10712L81.954213 177.860557L82.755146 180.348999L85.432962 179.486805L84.632021 176.998371L85.398271 176.751808L87.093276 182.016803Z"/>
<path d="M91.197465 176.880699L91.42997 177.352572L88.934965 178.581322L89.744653 180.225696L90.788402 179.711636C90.874032 179.669454 90.956529 179.620076 91.042156 179.577573L92.4506 178.884139L92.697157 179.384448L89.265596 181.074453L86.83247 176.134449L90.371217 174.391638L90.645912 174.949135L90.002472 175.266011C89.402157 175.561637 88.794345 175.843512 88.193718 176.139137L87.822155 176.322263L88.702469 178.109444L91.197465 176.880699Z"/>
<path d="M98.052317 175.873772L97.207941 176.55346L93.737629 172.245335L94.259191 171.825647L97.334506 175.643462L97.340749 175.638459L96.30169 170.181273L97.145754 169.501584L100.616071 173.809708L100.094821 174.229708L97.019507 170.411894L97.013252 170.416898L98.052317 175.873772Z"/>
<path d="M105.253301 168.971152L104.787679 169.484905L102.065483 167.017401C101.274233 166.300532 100.432047 166.505532 99.971735 167.013342C99.511737 167.521153 99.428298 168.348967 100.207672 169.05522L102.9358 171.528033L102.395172 172.124589L99.678925 169.662716C98.8108 168.87584 98.847361 167.553654 99.617986 166.70334C100.383298 165.858967 101.674862 165.727716 102.537052 166.509281L105.253301 168.971152Z"/>
<path d="M105.216666 161.088587C104.622598 161.363281 104.355415 161.492024 103.914164 162.155465C103.230727 163.184214 103.778227 164.447344 104.733845 165.082655C105.715724 165.735468 107.092604 165.664839 107.736349 164.695773C108.027601 164.257969 108.188221 163.714213 108.158851 163.254526L108.83323 163.549524C108.696974 164.1289 108.502915 164.535779 108.181035 165.020151C107.307918 166.333903 105.56698 166.592967 104.28635 165.741714C102.919162 164.832965 102.603226 163.120778 103.463226 161.827027C103.895414 161.176714 104.208853 160.99265 104.738851 160.71359L105.216666 161.088587Z"/>
<path d="M110.317008 161.133268L109.964815 161.857015L104.990444 159.436704L106.510759 156.3117L107.019506 156.559205C106.688258 157.24014 106.342946 157.914201 106.011692 158.595145L105.837319 158.95358L110.317008 161.133268Z"/>
<path d="M110.535554 152.6839L111.033989 152.8514L110.147427 155.487342L111.884614 156.07171L112.255555 154.968904C112.286181 154.878272 112.308994 154.784834 112.339616 154.694212L112.839933 153.2064L113.368366 153.384209L112.148988 157.009525L106.930242 155.254526L108.187741 151.515777L108.776805 151.713901L108.548054 152.393589C108.334618 153.028273 108.106493 153.657649 107.893054 154.292026L107.760866 154.684843L109.648991 155.319842L110.535554 152.6839Z"/>
<path d="M114.345528 149.037453L114.204586 149.797141L108.366462 150.944014L108.485524 150.301514L110.150522 149.978075L110.591772 147.596517L109.153337 146.698076L109.305837 145.875575L114.345528 149.037453ZM113.664277 149.389331L111.018026 147.878074L110.649272 149.867767L113.664277 149.389331Z"/>
<path d="M114.90166 144.46644L114.839785 145.268631L109.32666 144.84238L109.388535 144.040191L114.90166 144.46644Z"/>
<path d="M112.01498 139.620013C112.319361 138.472509 113.004986 138.167196 113.434978 138.155946C114.263419 138.134074 114.95029 139.088449 114.980612 140.243134L115.036231 142.338137L109.50842 142.484387L109.487795 141.70376L111.989041 141.63751L111.954047 140.32314L109.411858 138.836265L109.390608 138.031885L112.01498 139.620013ZM112.514666 141.623766L114.545917 141.569696L114.513733 140.359073C114.489671 139.443134 114.043734 138.865007 113.45436 138.880632C112.896861 138.895321 112.457169 139.457204 112.482481 140.413133L112.514666 141.623766Z"/>
<path d="M111.20865 133.05128L111.727085 132.964086L112.187716 135.706584L113.995218 135.402838L113.802405 134.255652C113.786779 134.161271 113.763031 134.068153 113.747091 133.973774L113.487091 132.425647L114.037091 132.333148L114.670843 136.105336L109.240839 137.017838L108.587401 133.127835L109.200214 133.024712L109.318964 133.731898C109.429901 134.392214 109.525214 135.055023 109.636151 135.715023L109.704589 136.123775L111.669281 135.793778L111.20865 133.05128Z"/>
<path d="M34.535342 123.972717L35.032226 124.145841L34.115967 126.772088L35.846594 127.376152L36.229718 126.277397C36.261288 126.18709 36.285346 126.094276 36.316907 126.003966L36.834097 124.521778L37.360972 124.705532L36.100662 128.317404L30.900658 126.503028L32.200347 122.778023L32.787221 122.982713L32.55097 123.660215C32.330346 124.292091 32.09472 124.919279 31.874097 125.551462L31.737847 125.942711L33.619093 126.598968L34.535342 123.972717Z"/>
<path d="M39.501353 120.404102L39.190415 121.023785L35.905724 119.376596C34.951038 118.897852 34.194788 119.320974 33.8876 119.933789C33.580099 120.546604 33.721977 121.366597 34.662289 121.83847L37.954159 123.489101L37.593223 124.208474L34.315724 122.565036C33.268538 122.039724 32.949164 120.756285 33.463536 119.730354C33.974477 118.711283 35.18354 118.238785 36.223853 118.760665L39.501353 120.404102Z"/>
<path d="M39.069497 115.718304C39.986995 114.96487 40.721686 115.117676 41.077305 115.359869C41.762628 115.826118 41.762003 117.002055 41.111993 117.957055L39.932626 119.689247L35.361372 116.577368L35.800746 115.932059L37.868873 117.339868L38.608872 116.252995L37.415124 113.560804L37.867933 112.895497L39.069497 115.718304ZM38.303873 117.635809L39.983249 118.779246L40.664806 117.777993C41.180434 117.020488 41.156684 116.291122 40.669191 115.959242C40.208251 115.645183 39.523563 115.84424 38.98543 116.634556L38.303873 117.635809Z"/>
<path d="M43.900091 110.222414C45.123842 111.328978 45.280708 113.103977 44.313207 114.173978S41.563521 115.265852 40.33977 114.159289C39.116338 113.052731 39.005713 111.297727 39.962586 110.239604C40.924773 109.175542 42.682279 109.121166 43.900091 110.222414ZM40.382275 110.618977C39.735399 111.334291 39.857268 112.637103 40.974459 113.647418C42.020715 114.593665 43.263836 114.514601 43.905402 113.805229C44.54696 113.095851 44.501338 111.850855 43.455089 110.904601C42.331961 109.888985 41.029152 109.903663 40.382275 110.618977Z"/>
<path d="M45.960417 107.85835C46.746982 107.196792 47.914795 107.162108 48.504481 107.863355C49.053541 108.515855 48.899479 109.644603 48.015415 110.388358L46.368857 111.773357L42.809479 107.541479L43.425417 107.023353L44.887293 108.761163L45.960417 107.85835ZM47.560417 110.157105C48.249482 109.577417 48.380732 108.842105 47.949792 108.329919C47.529481 107.82992 46.796664 107.800542 46.08323 108.40086L45.186976 109.154606L46.664163 110.910851L47.560417 110.157105Z"/>
<path d="M51.435592 104.366159L51.72215 104.807098L49.390278 106.323031L50.389342 107.859905L51.364965 107.225841C51.445279 107.17366 51.520901 107.114903 51.601214 107.063033L52.917464 106.207092L53.221525 106.674591L50.014342 108.759597L47.01309 104.14272L50.320589 101.992721L50.659339 102.513971L50.057781 102.904905C49.49653 103.269593 48.926532 103.621154 48.365281 103.985843L48.017778 104.211783L49.103712 105.882098L51.435592 104.366159Z"/>
<path d="M55.911622 105.364193L55.215378 105.700442L50.836315 101.672944L51.424752 101.388882L52.670691 102.539505L54.852568 101.485758L54.726002 99.794507L55.47975 99.430445L55.911622 105.364193ZM55.224753 105.02357L54.877879 101.995753L53.055068 102.876066L55.224753 105.02357Z"/>
<path d="M59.198768 103.990969L58.167518 104.324098L56.468456 99.061286L57.105333 98.855348L58.610957 103.519096L58.618459 103.516914L59.600327 98.050038L60.631577 97.716913L62.330641 102.97972L61.693763 103.185661L60.188139 98.521913L60.180333 98.524098L59.198768 103.990969Z"/>
<path d="M70.202719 99.016672C70.368969 100.657919 69.295848 102.080417 67.860844 102.226048C66.425536 102.371358 65.088659 101.193235 64.922408 99.551978C64.755847 97.910733 65.849909 96.534169 67.269284 96.390419C68.696474 96.245731 70.0371 97.383231 70.202719 99.016672ZM67.326471 96.953544C66.367094 97.050732 65.583976 98.099171 65.735847 99.597607C65.878032 101.001049 66.853975 101.775105 67.805537 101.678861C68.756785 101.582297 69.557094 100.628233 69.414909 99.224791C69.262092 97.71823 68.285845 96.856044 67.326471 96.953544Z"/>
<path d="M73.88853 98.972098C75.015716 99.346153 75.278528 100.049278 75.26384 100.479285C75.23509 101.307722 74.240405 101.934904 73.08571 101.895215L70.990714 101.822716L71.181652 96.294906L71.962278 96.322093L71.876025 98.823345L73.190407 98.868653L74.829776 96.420843L75.634152 96.448655L73.88853 98.972098ZM71.857591 99.348967L71.787593 101.380222L72.998215 101.421781C73.914154 101.453657 74.518836 101.043657 74.539152 100.454284C74.558213 99.896776 74.024151 99.423658 73.068212 99.390535L71.857591 99.348967Z"/>
<path d="M80.503556 99.636081L78.742623 99.342956L78.829182 98.823895L79.898241 99.001707L80.098243 97.799209C79.766678 97.655147 79.440433 97.52796 79.08668 97.469209C77.876058 97.267648 76.939497 98.283275 76.752307 99.407337C76.573245 100.48452 77.10699 101.793276 78.293869 101.990769C79.017309 102.111084 79.509808 101.967025 79.957936 101.702331L79.964492 102.438586C79.378868 102.607651 78.878556 102.653581 78.28106 102.554209C76.69293 102.289837 75.704807 100.849211 75.966369 99.276711C76.221681 97.743901 77.621683 96.659835 79.17043 96.917334C79.73637 97.01171 80.383874 97.248898 80.843868 97.592022L80.503556 99.636081Z"/>
<path d="M82.899017 103.609789L82.160265 103.382289L81.692454 97.451349L82.317142 97.643536L82.447146 99.334475L84.76277 100.047285L85.82089 98.721973L86.620581 98.968224L82.899017 103.609789ZM82.627772 102.892283L84.433705 100.437914L82.499019 99.842594L82.627772 102.892283Z"/>
<path d="M86.24089 104.842503L85.25871 104.384374L87.596208 99.371878L88.203084 99.654691L86.131522 104.096563L86.138711 104.100003L90.579334 100.762816L91.561522 101.220941L89.22402 106.23344L88.617142 105.950623L90.688395 101.508752L90.681205 101.505314L86.24089 104.842503Z"/>
<path d="M90.79525 107.205718L90.102436 106.795723L92.919311 102.035722L93.612121 102.445721L90.79525 107.205718Z"/>
<path d="M95.107259 109.736975L94.902882 110.021979L91.56882 107.627914L91.880071 107.194164L93.233194 108.16573C93.323822 108.230723 93.396639 108.293225 93.487261 108.358226L94.37413 108.995103L94.484133 103.363227L94.697883 103.065415L98.167881 105.557288L97.837882 106.016977L97.190381 105.551976C96.530069 105.077914 95.87913 104.590412 95.218819 104.116351L95.107259 109.736975Z"/>
<path d="M97.113174 112.034642L96.547541 111.507762L98.710983 105.966826L99.189108 106.412451L98.569418 107.990581L100.342235 109.641826L101.871922 108.91089L102.484109 109.481202L97.113174 112.034642ZM97.181607 111.271199L99.875982 109.850267L98.39473 108.470579L97.181607 111.271199Z"/>
<path d="M100.960848 115.325024L101.436467 115.903774C101.497095 115.977838 101.563971 116.046591 101.624905 116.120651L102.353346 117.00752L101.922094 117.361587L98.638975 113.364398L99.07022 113.010339L99.79866 113.897207C99.859283 113.970966 99.913971 114.050025 99.974601 114.123777L100.449906 114.702836L104.256161 111.57659L104.767094 112.198772L100.960848 115.325024Z"/>
<path d="M102.578477 118.573345L102.129105 117.905535L106.717233 114.819284L107.16661 115.487099L102.578477 118.573345Z"/>
<path d="M107.992276 122.468877C106.537589 123.246378 104.814158 122.794504 104.134157 121.522622C103.454152 120.250753 104.035717 118.566376 105.490404 117.788877C106.944783 117.011374 108.633528 117.500123 109.306031 118.75794C109.982278 120.022622 109.439781 121.695124 107.992276 122.468877ZM108.807282 119.024505C108.352905 118.174189 107.0854 117.848874 105.757275 118.558565C104.51353 119.22356 104.168532 120.419815 104.619151 121.263251C105.070092 122.106378 106.256654 122.483872 107.500408 121.818872C108.835409 121.105438 109.261966 119.874498 108.807282 119.024505Z"/>
<path d="M106.067163 125.258589L105.699357 124.238899L110.900603 122.361713L111.127792 122.991717L106.51873 124.655145L106.521226 124.662654L112.01779 125.458275L112.385602 126.477963L107.184352 128.355147L106.957164 127.725465L111.566228 126.062025L111.563415 126.054525L106.067163 125.258589Z"/>
<path d="M31.22649 111.918962L31.673989 112.195526L30.333058 114.364902L31.980557 115.383338L32.563056 114.440838C32.613367 114.359587 32.656805 114.27365 32.707116 114.192398L33.503369 112.904281L33.978059 113.197716L32.025238 116.357087L27.340554 113.461464L27.763679 112.776777L29.885559 114.088339L31.22649 111.918962Z"/>
<path d="M35.168041 107.102365C36.468672 108.116743 36.754608 109.875186 35.867733 111.012676C34.98086 112.150181 33.205548 112.302059 31.904919 111.28768C30.603981 110.273617 30.365859 108.531741 31.242734 107.406741C32.124607 106.275495 33.873356 106.093308 35.168041 107.102365ZM31.68867 107.754556C31.095859 108.514865 31.312728 109.80518 32.50023 110.731116C33.612735 111.598305 34.846479 111.428616 35.434293 110.674554C36.02242 109.920497 35.886171 108.682686 34.773673 107.81549C33.579923 106.884556 32.28148 106.994246 31.68867 107.754556Z"/>
<path d="M37.671026 104.307164C38.708528 103.729035 39.404153 104.010292 39.711344 104.311845C40.302592 104.89247 40.093222 106.049661 39.283526 106.873413L37.814782 108.367789L33.869154 104.492161L34.416342 103.935285L36.201339 105.688725L37.122902 104.751223L36.426966 101.88966L36.990716 101.31591L37.671026 104.307164ZM36.576655 106.057155L38.026343 107.481227L38.875407 106.617471C39.517594 105.964034 39.623842 105.242161 39.203214 104.829036C38.805089 104.438093 38.095718 104.511846 37.42572 105.193413L36.576655 106.057155Z"/>
<path d="M46.111565 101.177267L45.200317 101.764145L42.205003 97.114455L42.767818 96.751953L45.422189 100.872268L45.428757 100.867895L44.972194 95.331953L45.88313 94.745079L48.878442 99.39477L48.315632 99.757267L45.661251 95.636955L45.654695 95.641328L46.111565 101.177267Z"/>
<path d="M53.520323 97.056806L52.898131 97.362112L51.279377 94.064932C50.808752 93.106493 49.950631 92.986492 49.335632 93.288366C48.720319 93.590554 48.337507 94.328992 48.800938 95.273052L50.42345 98.577432L49.700943 98.932115L48.085629 95.642113C47.569381 94.590554 48.091256 93.375555 49.121257 92.869929C50.14407 92.367428 51.392196 92.722429 51.905006 93.766806L53.520323 97.056806Z"/>
<path d="M56.767626 90.997164C56.126683 90.863729 55.835434 90.808103 55.085744 91.078104C53.923558 91.497166 53.610432 92.83779 53.999807 93.917479C54.3995 95.027164 55.54731 95.791231 56.641993 95.396539C57.136682 95.218421 57.589813 94.877169 57.840438 94.490602L58.206061 95.129671C57.751377 95.513731 57.353248 95.724982 56.806058 95.922172C55.32137 96.457165 53.768562 95.627482 53.246997 94.18029C52.690434 92.635913 53.456999 91.072165 54.919188 90.54529C55.653875 90.280289 56.015127 90.319664 56.607315 90.411227L56.767626 90.997164Z"/>
<path d="M59.778278 94.915844L58.997653 95.112714L57.646404 89.75022L61.015464 88.901158L61.153591 89.449908C60.419532 89.634907 59.681713 89.804283 58.947654 89.989282L58.561403 90.08647L59.778278 94.915844Z"/>
<path d="M66.068959 90.711618L66.148335 91.23131L63.399585 91.650688L63.675836 93.462563L64.825841 93.287242C64.920217 93.272868 65.013648 93.250374 65.108024 93.236L66.659591 92.999432L66.74365 93.550687L62.963027 94.127246L62.133027 88.684433L66.032094 88.089745L66.12584 88.70412L65.416779 88.812245C64.755214 88.913183 64.091154 88.998496 63.429275 89.099433L63.019903 89.161933L63.320209 91.130995L66.068959 90.711618Z"/>
<path d="M69.852448 93.394721L69.080259 93.430968L66.63276 88.009721L67.285573 87.979096L67.979944 89.525973L70.399634 89.412844L70.946827 87.807533L71.782451 87.768471L69.852448 93.394721ZM69.354327 92.811913L70.222758 89.891594L68.201195 89.986288L69.354327 92.811913Z"/>
<path d="M75.444281 90.554182C76.561467 90.95699 76.806155 91.666054 76.780212 92.095426C76.730525 92.922617 75.720216 93.524178 74.566777 93.45449L72.475217 93.328239L72.808342 87.808869L73.587714 87.856056L73.437095 90.35324L74.749279 90.432303L76.450846 88.028869L77.25428 88.077307L75.444281 90.554182ZM73.405212 90.878242L73.283026 92.906366L74.492095 92.979176C75.406469 93.034494 76.02115 92.640427 76.056467 92.051991C76.090217 91.495436 75.568656 91.008868 74.614281 90.951052L73.405212 90.878242Z"/>
<path d="M85.808673 92.513167C86.812107 93.148783 86.897111 93.894415 86.778676 94.308162C86.550228 95.105042 85.433044 95.473162 84.322108 95.155036L82.306794 94.577854L83.82992 89.260038L84.580857 89.475038L83.8918 91.880975L85.156168 92.243165L87.339299 90.265351L88.113354 90.486912L85.808673 92.513167ZM83.746796 92.386916L83.187417 94.340972L84.352104 94.67473C85.233357 94.926914 85.918984 94.67566 86.081484 94.108481C86.234921 93.572221 85.831173 92.984104 84.911485 92.720664L83.746796 92.386916Z"/>
<path d="M91.420225 94.6044L91.223663 95.092217L88.644291 94.052215L87.958658 95.751907L89.037728 96.187214C89.126157 96.222841 89.218036 96.251275 89.306782 96.287212L90.76272 96.874088L90.553972 97.391277L87.006475 95.960961L89.065848 90.854091L92.724284 92.329402L92.491784 92.905965L91.826474 92.637529C91.205847 92.387215 90.590847 92.121902 89.970219 91.871589L89.58585 91.716591L88.84085 93.564407L91.420225 94.6044Z"/>
<path d="M94.103723 98.998972C93.52966 98.997101 93.067788 98.900541 92.544655 98.628352C91.477164 98.073037 91.223098 97.024595 91.576221 96.345851C91.726848 96.05616 91.995286 95.764596 92.510597 95.619598C92.97279 95.491473 93.334347 95.589908 93.828103 95.711784C94.495282 95.879284 94.676539 95.92835 94.991845 95.823032C95.196223 95.758655 95.412156 95.619286 95.537165 95.37897C95.765281 94.940846 95.604661 94.282411 94.918723 93.925848C94.515908 93.71616 93.802787 93.498037 92.997784 93.681161L93.215597 92.986161C93.675597 92.96491 94.409661 92.987412 95.201532 93.399284C96.184343 93.910221 96.512785 94.988348 96.100907 95.780219C95.803097 96.352726 95.301845 96.505227 95.083098 96.580221C94.635283 96.71553 94.269972 96.623967 93.659347 96.468352C93.176531 96.343036 92.920912 96.281784 92.666538 96.356474C92.526847 96.400537 92.279664 96.478347 92.139967 96.747102C91.93404 97.143036 92.116537 97.75897 92.802475 98.115532C93.339662 98.395222 93.802784 98.42022 94.321534 98.303666L94.103723 98.998972Z"/>
<path d="M99.484507 99.191579L99.198251 99.632829L96.865128 98.11907L95.86763 99.656571L96.843565 100.289704C96.92388 100.341885 97.008567 100.3872 97.088877 100.43939L98.40544 101.293766L98.102002 101.761572L94.893565 99.679703L97.890442 95.060638L101.19919 97.207512L100.860755 97.728764L100.259189 97.338449C99.697629 96.974075 99.145131 96.596889 98.583571 96.232515L98.235752 96.006887L97.151377 97.677828L99.484507 99.191579Z"/>
<path d="M100.527863 103.710657L99.926933 103.224408L101.70193 97.546283L102.209742 97.957533L101.700681 99.575344L103.584117 101.099091L105.059744 100.263159L105.710367 100.789721L100.527863 103.710657ZM100.543174 102.944096L103.133498 101.339094L101.560049 100.065971L100.543174 102.944096Z"/>
<path d="M106.596315 105.313042C107.162253 106.35773 106.872565 107.049918 106.567255 107.353042C105.97913 107.937423 104.824128 107.713978 104.009759 106.893984L102.532254 105.406796L106.45663 101.508045L107.007257 102.062422L105.231625 103.82648L106.158503 104.759297L109.029441 104.098043L109.596942 104.668982L106.596315 105.313042ZM104.8585 104.197108L103.416632 105.629919L104.270374 106.489295C104.916318 107.139608 105.637564 107.25461 106.056008 106.838668C106.451947 106.445547 106.386319 105.734919 105.712257 105.056484L104.8585 104.197108Z"/>
<path d="M112.098473 109.304559C112.016594 108.654866 111.975343 108.361115 111.476593 107.739553C110.704094 106.775804 109.334098 106.91424 108.438781 107.632055C107.51878 108.369871 107.167844 109.703302 107.895659 110.611121C108.22472 111.021427 108.694406 111.339555 109.141282 111.451124L108.655348 112.003931C108.144718 111.698617 107.815965 111.390493 107.451906 110.936435C106.465033 109.705488 106.746598 107.967679 107.946593 107.005808C109.227218 105.97862 110.954722 106.196745 111.926909 107.409245C112.415343 108.018302 112.49566 108.373308 112.600659 108.962994L112.098473 109.304559Z"/>
<path d="M111.279853 116.414405L110.849227 115.7344L112.869226 114.455342L111.364226 112.078158L109.344227 113.357216L108.913603 112.677214L113.586728 109.718153L114.017354 110.398155L111.808606 111.796593L113.313607 114.173778L115.522352 112.77534L115.95298 113.455344L111.279853 116.414405Z"/>
</g>
</g>
</svg>